<?xml version="1.0" encoding="utf-8"?>
<!-- Generator: Adobe Illustrator 22.1.0, SVG Export Plug-In . SVG Version: 6.00 Build 0)  -->
<svg version="1.1" id="Calque_1" xmlns="http://www.w3.org/2000/svg" xmlns:xlink="http://www.w3.org/1999/xlink" x="0px" y="0px"
	 viewBox="0 0 3800 1000" style="enable-background:new 0 0 3800 1000;" xml:space="preserve">
<style type="text/css">
	.st0{fill:#2C304B;}
</style>
<g>
	<g transform="translate(50 13.023)">
		<path class="st0" d="M1282,430.7l-58.6,127.1h117.3L1282,430.7z M1282.9,330L1439,664.9h-50.3l-30.5-67.2h-152.4l-30.5,67.2H1125
			L1281.1,330H1282.9z"/>
		<polygon class="st0" points="1569.9,330 1569.9,623.4 1732,623.4 1732,664.9 1522.7,664.9 1522.7,330 		"/>
		<path class="st0" d="M1995.6,621.3l-51-59.4l32.5-27.9l53.7,62.5c23.9-24.3,35.7-55.7,35.7-94c0-37.3-11.3-68.3-33.9-92.6
			c-22.6-24.3-51.5-36.4-86.7-36.4c-35.2,0-64.1,12.1-86.7,36.4c-22.6,24.3-33.9,55.3-33.9,92.6c0,37.3,11.3,68.3,33.9,92.6
			c22.6,23.8,51.5,36,86.7,36C1963.6,631.2,1979.8,628,1995.6,621.3z M2060.2,630.7l68.2,78.2h-56.4L2025,655
			c-23.9,12.1-50.6,18.4-79,18.4c-48.3,0-88.5-16.2-120.1-48.1c-31.1-32.4-46.9-73.3-46.9-122.7c0-49,15.8-89.9,47.4-122.3
			c31.6-32.8,71.3-49,119.6-49s88,16.2,119.6,49c32,32.4,47.8,73.3,47.8,122.3C2113.5,555.7,2095.9,598.4,2060.2,630.7z"/>
		<polygon class="st0" points="2417.8,337.1 2417.8,379.4 2258.5,379.4 2258.5,479.7 2398.4,479.7 2398.4,520.6 2258.5,520.6 
			2258.5,625.4 2421.4,625.4 2421.4,667.6 2212.4,667.6 2212.4,337.1 		"/>
		<polygon class="st0" points="2839.9,331.3 2839.9,667.6 2793.9,667.6 2793.9,485.5 2682,670.3 2678.8,670.3 2566.4,485.5 
			2566.4,667.6 2520.4,667.6 2520.4,331.3 2522.2,331.3 2680.2,588 2838.1,331.3 		"/>
		<polygon class="st0" points="2961.9,667.6 3008,667.6 3008,337.1 2961.9,337.1 		"/>
		<path class="st0" d="M3329,366.4l-24.4,37.8c-24.8-20.2-52.8-30.6-84-30.6c-37.9,0-62.3,17.5-62.3,51.7c0,14.4,5.4,25.2,15.8,32.4
			c10.8,7.2,30.7,13.9,59.1,19.8c79.9,17.5,110.6,45,110.6,95.8c0,30.1-10.8,54.4-32.1,72.8c-21.2,18.4-50.1,27.4-86.2,27.4
			c-48.3,0-88.9-13.9-121.4-42.3l25.7-38.2c23.5,23.4,60.9,38.2,97.1,38.2c42.9,0,70.9-19.8,70.9-54.4c0-28.8-21.2-42.7-77.6-54.8
			c-39.7-8.5-67.7-20.2-84-35.1c-15.8-14.8-23.9-34.6-23.9-59.8c0-29.2,9.9-52.1,29.8-69.7c19.9-17.5,46-26.1,79-26.1
			C3263.5,331.3,3299.7,343,3329,366.4"/>
		<polygon class="st0" points="3678.5,337.1 3678.5,378.1 3562,378.1 3562,667.6 3516,667.6 3516,378.1 3400,378.1 3400,337.1 		"/>
	</g>
	<g>
		<polygon class="st0" points="299.3,567.1 344.6,682.9 370.6,599.8 		"/>
		<polygon class="st0" points="402.6,707.3 605,707.3 503.8,660.8 		"/>
		<polygon class="st0" points="503.8,636.5 610,587.7 503.6,248.4 397.6,587.8 		"/>
		<polygon class="st0" points="467.6,289.4 294.1,540.4 377.2,578.5 		"/>
		<polygon class="st0" points="390.9,609.1 362,701.6 477.2,648.7 		"/>
		<polygon class="st0" points="630.3,578.4 713.1,540.4 539.8,289.6 		"/>
		<path class="st0" d="M500,50C251.5,50,50,251.5,50,500s201.5,450,450,450s450-201.5,450-450S748.5,50,500,50z M746.9,548.7
			l-69.4,178.6c-2.2,5.7-7.7,9.4-13.8,9.4H344c-6.1,0-11.6-3.7-13.8-9.4l-69.9-178.6c-1.8-4.6-1.2-9.7,1.6-13.7l229.5-332.1
			c2.8-4,7.3-6.4,12.2-6.4s9.4,2.4,12.2,6.4L745.3,535C748.1,539,748.7,544.2,746.9,548.7z"/>
		<polygon class="st0" points="663.1,682.8 708.1,567.1 637,599.7 		"/>
		<polygon class="st0" points="530.3,648.7 645.7,701.6 616.7,609 		"/>
	</g>
</g>
</svg>
